# xmcd
#
# Track frame offsets: 
#        150
#        18830
#        35107
#        52480
#        74557
#        88540
#        107195
#        123120
#        139225
#        154002
#
# Disc length: 2274 seconds
#
# Revision: 3
# Processed by: cddbd v1.5.2PL0 Copyright (c) Steve Scherf et al.
# Submitted via: ExactAudioCopy v0.99pb5
#
DISCID=8e08e00a
DTITLE=ZZ Top - Afterburner
DYEAR=1985
DGENRE=Boogie
TTITLE0=Sleeping Bag
TTITLE1=Stages
TTITLE2=Woke Up With Wood
TTITLE3=Rough Boy
TTITLE4=Can't Stop Rockin'
TTITLE5=Planet Of Women
TTITLE6=I Got The Message
TTITLE7=Velcro Fly
TTITLE8=Dipping Low In The Lap Of Luxury
TTITLE9=Delirious
EXTD=YEAR: 1985
EXTT0=
EXTT1=
EXTT2=
EXTT3=
EXTT4=
EXTT5=
EXTT6=
EXTT7=
EXTT8=
EXTT9=
PLAYORDER=
